<svg
    id="cpu"
  xmlns="http://www.w3.org/2000/svg"
  viewBox="0 0 2385.82 2385.82"
  shape-rendering="geometricPrecision"
  image-rendering="optimizeQuality"
  fill-rule="evenodd"
>
  <path
    d="M198.82 198.82h298.23V0h198.82v198.82h198.82V0h198.82v198.82h198.82V0h198.82v198.82h198.82V0h198.82v198.82h298.23v298.23h198.82v198.82h-198.82v198.82h198.82v198.82h-198.82v198.82h198.82v198.82h-198.82v198.82h198.82v198.82h-198.82v298.23h-298.23v198.82h-198.82v-198.82h-198.82v198.82h-198.82v-198.82h-198.82v198.82H894.69v-198.82H695.87v198.82H497.05v-198.82H198.82v-298.23H0v-198.82h198.82v-198.82H0v-198.82h198.82v-198.82H0V894.69h198.82V695.87H0V497.05h198.82V198.82zm298.23 298.23h1391.73v1391.73H497.05V497.05zm198.82 198.82h994.09v994.09H695.87V695.87z"
  />
</svg>
