<svg id="firewall" viewBox="0 0 29 29" fill="none" xmlns="http://www.w3.org/2000/svg">
<path fill-rule="evenodd" clip-rule="evenodd" d="M27.7917 25.375H25.375V27.7917H27.7917V25.375ZM3.625 25.375H1.20828V27.7917H3.625V25.375ZM15.7083 20.5417H27.7903H27.7917C28.4589 20.5417 29 20.0007 29 19.3333V1.20828C29 0.541056 28.4589 0 27.7917 0H1.20828C0.541055 0 0 0.541056 0 1.20828V19.3333C0 20.0007 0.541055 20.5417 1.20828 20.5417H1.20975H13.2917V24.1667H10.875V29H18.125V24.1667H15.7083V20.5417ZM8.45843 25.3751H6.04186V27.7919H8.45843V25.3751ZM22.9584 25.3751H20.5419V27.7919H22.9584V25.3751ZM11.1592 4.54982C9.89408 4.74835 8.76969 4.92479 8.05556 5.63889V9.51548C8.05556 10.875 8.05556 12.4861 8.86111 13.6944L11.1948 15.7094L13.5286 17.7244C13.7958 17.9915 14.1479 18.1251 14.5 18.1251C14.8521 18.1251 15.2042 17.9915 15.4714 17.7244L17.8052 15.7094L20.1389 13.6944C20.9444 12.4861 20.9444 10.875 20.9444 9.51548V5.63889C20.2303 4.92479 19.1059 4.74835 17.8408 4.54982C16.7734 4.38233 15.6059 4.19911 14.5 3.66404C13.3941 4.19911 12.2266 4.38233 11.1592 4.54982Z" fill="#20a8d8"/>
</svg>
