<svg
id="hdd"
  xmlns="http://www.w3.org/2000/svg"
  viewBox="0 0 2385.82 2385.82"
  shape-rendering="geometricPrecision"
  image-rendering="optimizeQuality"

>
  <path
    d="M2385.82 2107.87c0 153.45-534.12 277.96-1192.93 277.96C534.11 2385.83 0 2261.32 0 2107.87v-431.15c0-48.62 53.67-94.37 147.94-134.13C53.67 1502.83 0 1457.11 0 1408.5V977.35c0-48.62 53.67-94.37 147.94-134.13l-4.39-1.86-4.32-1.89-12.62-5.68-4.09-1.92-4.04-1.9-3.95-1.95-3.93-1.93-.37-.19-7.24-3.69-3.72-1.99-3.66-1.96-7.1-3.97-3.48-1.99-3.38-1.99-3.35-2.01-3.25-2.03-3.22-2.02-3.13-2.01-5.24-3.47-.79-.55-.07-.06-2.9-2.05-2.87-2.05-2.81-2.09-2.73-2.08-2.67-2.05-2.6-2.12-2.47-2.01-4.93-4.25-1.06-.92-1.28-1.19-4.48-4.31-1.84-1.84-5.48-5.87-.24-.25-.47-.54-4.8-5.89-.35-.38-.13-.19-4.09-5.75-1.29-1.95-3.21-5.37-.03-.06-.3-.5-.38-.74-2.66-5.42-.39-.83-.16-.4c-.94-2.15-1.73-4.32-2.44-6.47l-.1-.28c-.76-2.27-1.36-4.54-1.87-6.82l-.02-.15-.14-.7c-.94-4.48-1.43-9.02-1.43-13.59V277.9C-.02 124.45 534.1-.07 1192.87-.07c658.82 0 1192.93 124.52 1192.93 277.97v431.15c0 4.57-.49 9.09-1.42 13.59l-.14.7-.03.15c-.51 2.28-1.11 4.55-1.87 6.82l-.1.28c-.71 2.18-1.49 4.32-2.44 6.47l-.16.4-.38.83-2.67 5.42-.38.74-.3.5-.03.06-3.21 5.37-1.29 1.95c-1.27 1.93-2.59 3.86-4.09 5.75l-.13.19-.35.38-4.8 5.89-.47.54-.24.25-5.48 5.87-1.84 1.84-4.48 4.31-1.28 1.19-1.06.92-4.93 4.25-2.47 2.01-2.6 2.12-2.67 2.05-2.73 2.08-2.81 2.09-2.87 2.05-2.9 2.05-.07.06-.79.55-5.24 3.47-3.13 2.01-3.22 2.02-3.25 2.03-3.34 2.01-3.38 1.99-3.49 1.99-7.1 3.97-3.66 1.96-3.72 1.99-7.24 3.69-.37.19-3.93 1.93-3.95 1.95-4.04 1.9-4.09 1.92-12.62 5.68-4.32 1.89-4.39 1.86c94.27 39.76 147.94 85.51 147.94 134.13v431.15c0 48.61-53.67 94.33-147.94 134.09 94.27 39.76 147.94 85.51 147.94 134.13v431.15zM1888.77 994.1h-596.46l99.41-695.87-894.68 1093.49h596.46l-99.41 695.87L1888.77 994.1z"

  />
</svg>
