<svg
id="ip"
  xmlns="http://www.w3.org/2000/svg"

  viewBox="0 0 1985.84 1985.84"
  shape-rendering="geometricPrecision"
  image-rendering="optimizeQuality"
  fill-rule="evenodd"
>
  <path
    d="M1737.61 1737.61h165.49v165.49h-165.49v-165.49zm-1654.87 0h165.49v165.49H82.74v-165.49zM1903 1406.64h-827.34v248.23h165.49v330.97H744.69v-330.97h165.49v-248.23H82.84h-.1c-45.69 0-82.74-37.05-82.74-82.75V82.74C0 37.05 37.05 0 82.74 0H1903.1c45.69 0 82.74 37.05 82.74 82.74v1241.15c0 45.7-37.05 82.75-82.74 82.75h-.1zM666.42 300.73c180.32-180.31 472.68-180.31 653 0 180.33 180.32 180.33 472.68 0 653l-259.99 259.99c-36.58 36.58-96.44 36.58-133.03 0L666.41 953.73c-180.33-180.32-180.33-472.68 0-653zm117.02 117.02c115.71-115.7 303.27-115.7 418.97 0 115.69 115.71 115.69 303.27 0 418.97-115.71 115.7-303.27 115.7-418.97 0-115.69-115.71-115.69-303.27 0-418.97zM413.73 1737.62h165.48v165.49H413.73v-165.49zm992.92 0h165.48v165.49h-165.48v-165.49z"
  />
</svg>
