<svg id="ipv6" viewBox="0 0 26 36" xmlns="http://www.w3.org/2000/svg">
<path clip-rule="evenodd" d="M10.729 0.210955C7.40665 0.899073 4.65276 3.09531 3.37449 6.07646C3.17806 6.53446 2.33839 10.0667 1.50865 13.9259L0 20.9427L0.0691457 23.0955C0.129919 24.9864 0.19891 25.4327 0.635489 26.7634C2.7959 33.3466 9.17482 37.1119 15.7888 35.7078C20.3039 34.7493 23.9317 31.4021 25.4831 26.7634C25.9715 25.3031 25.9899 25.1564 25.9949 22.6968L26 20.1453L24.4955 13.4022C23.3436 8.23968 22.8743 6.41518 22.4933 5.61894C21.5708 3.69157 19.4781 1.74857 17.318 0.813756C15.4951 0.0246933 12.8129 -0.220733 10.729 0.210955ZM15.2972 3.08717C17.1368 3.5801 19.1009 5.08678 19.9189 6.63269C20.319 7.38906 20.9581 9.72866 20.9603 10.4461C20.9624 11.1606 20.1448 11.5482 19.6685 11.0583C19.5422 10.9284 19.3152 10.2646 19.1642 9.58323C19.0132 8.90197 18.7347 8.02153 18.5456 7.62684C17.0008 4.40441 12.1157 3.45826 9.03436 5.78479C7.72183 6.7759 7.41719 7.45716 6.56527 11.3058C6.14931 13.1855 5.82901 14.7474 5.8535 14.777C5.878 14.8065 6.26001 14.5364 6.70248 14.1766C10.5711 11.0312 16.3071 11.2419 19.9366 14.6627C23.5587 18.0767 24.4252 23.3425 22.0852 27.7202C21.2234 29.3328 19.3245 31.1884 17.7056 31.9999C15.9722 32.869 14.8569 33.1427 13.0608 33.1398C10.5681 33.1358 8.50243 32.4172 6.71891 30.9335C4.93585 29.4503 3.86564 27.8763 3.17884 25.7268C2.84241 24.6743 2.76955 24.1442 2.76195 22.6968C2.75327 21.0427 2.83482 20.5698 4.19199 14.4044C4.98391 10.8075 5.79878 7.48714 6.00342 7.02388C6.76542 5.29824 8.7632 3.64341 10.7464 3.09483C11.8614 2.78625 14.16 2.78243 15.2972 3.08717ZM12.0468 13.6955C8.54383 14.0613 5.416 16.8892 4.60609 20.4228C2.77869 28.3949 11.3086 34.4934 17.9222 29.9432C22.4506 26.8278 23.0607 20.2837 19.194 16.3003C17.2196 14.2664 14.8499 13.4027 12.0468 13.6955ZM15.3466 17.7316C16.3948 18.2833 17.2721 19.2167 17.8166 20.359C18.1794 21.1203 18.2462 21.4614 18.2431 22.5374C18.2402 23.5915 18.1647 23.9793 17.8086 24.77C15.941 28.9173 10.3331 28.9853 8.3705 24.8845C7.92276 23.949 7.8609 23.6647 7.86105 22.5407C7.86105 21.4906 7.9347 21.1004 8.27159 20.3609C8.90971 18.9603 10.1636 17.8403 11.6593 17.335C11.8724 17.263 12.605 17.2257 13.2871 17.252C14.269 17.2901 14.6981 17.39 15.3466 17.7316ZM12.1707 18.3513C11.8123 18.756 11.5042 19.3224 11.5042 19.5766C11.5042 19.6701 11.7833 19.7466 12.1244 19.7466H12.7445V18.8695C12.7445 17.9046 12.6454 17.8151 12.1707 18.3513ZM13.3646 18.8695V19.7466H13.9848C14.3259 19.7466 14.6049 19.6701 14.6049 19.5766C14.6049 19.169 13.7789 17.9925 13.4927 17.9925C13.4223 17.9925 13.3646 18.3871 13.3646 18.8695ZM10.2494 18.8297C9.3604 19.5291 9.31482 19.7466 10.0573 19.7465C10.6103 19.7463 10.674 19.6966 10.9746 19.0289C11.3703 18.1505 11.1794 18.098 10.2494 18.8297ZM15.1029 19.029C15.4164 19.6926 15.4863 19.7466 16.0311 19.7466C16.3553 19.7466 16.6204 19.6782 16.6204 19.5945C16.6204 19.3899 15.235 18.3114 14.9722 18.3114C14.8173 18.3114 14.8508 18.4951 15.1029 19.029ZM8.72878 20.8867C8.63514 21.1629 8.55856 21.5576 8.55856 21.7638C8.55856 22.1108 8.62042 22.1387 9.39187 22.1387C10.2012 22.1387 10.228 22.1243 10.3221 21.6404C10.5466 20.4856 10.4932 20.3845 9.65899 20.3845C8.94583 20.3845 8.88847 20.4155 8.72878 20.8867ZM11.1332 20.6368C11.0814 20.7755 11.0391 21.1702 11.0391 21.5139V22.1387H11.8918H12.7445V21.2616V20.3845H11.9859C11.4372 20.3845 11.2013 20.4544 11.1332 20.6368ZM13.3646 21.2616V22.1387H14.2173H15.07L15.0679 21.6204C15.0635 20.5303 14.9519 20.3845 14.1217 20.3845H13.3646V21.2616ZM15.6185 20.6636C15.6486 20.8172 15.715 21.2119 15.7661 21.5407L15.8593 22.1387H16.7049C17.6504 22.1387 17.6852 22.0794 17.3711 21.001C17.1921 20.3871 17.188 20.3845 16.3777 20.3845C15.6855 20.3845 15.5723 20.4261 15.6185 20.6636ZM8.55856 23.311C8.55856 23.5172 8.63514 23.9119 8.72878 24.1881C8.88847 24.6593 8.94583 24.6902 9.65899 24.6902C10.4932 24.6902 10.5466 24.5891 10.3221 23.4344C10.228 22.9504 10.2012 22.9361 9.39187 22.9361C8.62042 22.9361 8.55856 22.964 8.55856 23.311ZM11.0391 23.5609C11.0391 24.5753 11.1355 24.6902 11.9859 24.6902H12.7445V23.8131V22.9361H11.8918H11.0391V23.5609ZM13.3646 23.8131V24.6902H14.1217C14.9519 24.6902 15.0635 24.5445 15.0679 23.4543L15.07 22.9361H14.2173H13.3646V23.8131ZM15.7661 23.5341C15.715 23.8631 15.6486 24.2576 15.6185 24.4112C15.5722 24.6489 15.686 24.6902 16.3872 24.6902C17.1709 24.6902 17.2183 24.6663 17.3804 24.1881C17.474 23.9119 17.5506 23.5172 17.5506 23.311C17.5506 22.9632 17.4894 22.9361 16.7049 22.9361H15.8593L15.7661 23.5341ZM9.80798 25.8962C10.1976 26.3229 11.1765 27.0016 11.2571 26.9011C11.2827 26.8692 11.1717 26.5382 11.0104 26.1653C10.7339 25.5259 10.6811 25.4876 10.076 25.4876H9.43466L9.80798 25.8962ZM11.5048 25.6072C11.5058 25.7938 12.1433 26.8295 12.3377 26.9603C12.6761 27.1877 12.7445 27.0742 12.7445 26.2849V25.4876H12.1244C11.7833 25.4876 11.5045 25.5415 11.5048 25.6072ZM13.3646 26.2849C13.3646 26.7235 13.4223 27.0823 13.4927 27.0823C13.7429 27.0823 14.6049 25.9164 14.6049 25.5779C14.6049 25.5283 14.3259 25.4876 13.9848 25.4876H13.3646V26.2849ZM15.119 26.0856C14.9731 26.4146 14.8251 26.7429 14.79 26.8153C14.6648 27.0742 15.93 26.3079 16.2985 25.9017L16.6745 25.4876H16.0294C15.4344 25.4876 15.3637 25.5342 15.119 26.0856Z" />
</svg>
