<svg id="lang" xmlns="http://www.w3.org/2000/svg" xml:space="preserve"  version="1.1" style="shape-rendering:geometricPrecision; text-rendering:geometricPrecision; image-rendering:optimizeQuality; fill-rule:evenodd; clip-rule:evenodd"
viewBox="0 0 1585.87 1585.87">
 <g id="Layer_x0020_1">
  <metadata id="CorelCorpID_0Corel-Layer"/>
  <path class="fil0" d="M429.64 424.34l-19.88 0 -37.16 185.85 94.2 0 -37.16 -185.85zm113.21 975.68l7.97 63.75c5.32,42.69 33.69,86.22 80.34,107.96 88.06,-96.93 34.78,-38.29 155.98,-171.71l-244.29 0zm213.42 -1277.93c-8.66,-69.6 -68.14,-122.09 -138.29,-122.09l-478.6 0c-76.86,0 -139.38,62.52 -139.38,139.38l0 1028.33c0,76.86 62.52,139.39 139.38,139.39 277.74,0 477.55,0 732.7,0 13.55,-15.49 24.91,-25.2 25.39,-45.42 0.12,-5.07 -140.57,-1134.56 -141.2,-1139.59zm-186.52 765.95c-24.64,5.07 -49.6,-10.92 -54.67,-36.44l-29.7 -148.5 -131.37 0 -29.7 148.5c-4.99,25.14 -29.22,41.65 -54.67,36.44 -25.14,-5.04 -41.47,-29.49 -36.44,-54.67l92.92 -464.61c4.35,-21.69 23.41,-37.35 45.55,-37.35l96.02 0c22.13,0 41.19,15.66 45.54,37.35l92.92 464.61c5.05,25.19 -11.29,49.64 -36.43,54.67zm876.74 -606.19l-577 0 120.31 965.4c2.13,39.49 -8.66,76.67 -34.43,105.77l-203.74 232.84 694.87 0c76.86,0 139.38,-62.52 139.38,-139.38l0 -1022.15c0,-76.86 -62.52,-142.48 -139.38,-142.48zm0 514.18l-12.41 0c-26.44,84.81 -68.36,151.18 -111.93,203.5 34.14,31.21 70.63,56.8 106.92,85.48 20,16.02 23.27,45.23 7.22,65.29 -16,20.02 -45.33,23.27 -65.3,7.22 -39.42,-31.12 -76.43,-57.17 -113.44,-91.13 -37.01,33.96 -70.92,60.01 -110.35,91.13 -19.96,16.06 -49.3,12.81 -65.29,-7.22 -16.07,-20.06 -12.8,-49.27 7.22,-65.29 36.29,-28.67 69.69,-54.27 103.81,-85.48 -43.57,-52.31 -82.4,-118.68 -108.83,-203.5l-12.41 0c-25.68,0 -46.46,-20.78 -46.46,-46.47 0,-25.68 20.77,-46.46 46.46,-46.46l139.39 0 0 -46.47c0,-25.68 20.77,-46.46 46.46,-46.46 25.68,0 46.46,20.77 46.46,46.46l0 46.47 142.49 0c25.67,0 46.46,20.77 46.46,46.46 0,25.68 -20.78,46.47 -46.46,46.47zm-265.23 0c20.06,53.89 46.75,97.51 76.28,134.63 29.53,-37.12 59.31,-80.75 79.37,-134.63l-155.65 0z"/>
 </g>
</svg>
