<svg
  xmlns="http://www.w3.org/2000/svg"
  viewBox="0 0 2385.82 2385.82"
  shape-rendering="geometricPrecision"
  image-rendering="optimizeQuality"
>
  <path
    d="M1689.96 2087.6h596.46v198.82h-596.46V2087.6zm-1590.55 0h596.46v198.82H99.41V2087.6zm2186.89-397.64h-993.97v298.23h198.83v397.64H894.69v-397.64h198.82v-298.23H99.54h-.12c-54.9 0-99.41-44.51-99.41-99.41V99.41C.01 44.51 44.52 0 99.42 0h2187.01c54.9 0 99.41 44.51 99.41 99.41v1491.14c0 54.9-44.51 99.41-99.41 99.41h-.12zm-1093.38-198.82c-356.28 0-646.16-289.86-646.16-646.16s289.88-646.16 646.16-646.16 646.16 289.86 646.16 646.16-289.88 646.16-646.16 646.16zm389.8-541.47c11.99 47.37-119.15 32.35-151.19 76.69-32.04 44.33-110.35 14.54-128.51 6.02-18.16-8.53-87.7 19.87-81.63-28.4 6.04-48.3 48.35-51.14 93.72-71.01 45.35-19.85 110.77-85.89 78.62-94.52-151.34-40.6-202.96-182.75-202.96-182.75-9.08-1.71-6.8-100.51-46.1-103.35-39.33-2.84-60.51 11.36-117.93 0-57.47-11.35-45.36-48.27-54.44-127.8-9.06-79.54 24.22-53.97 42.18-79.52 1.57-2.24 3.63-4.24 5.62-6.24-210.41 72.04-362.18 271.68-362.18 506.2 0 .37.02.75.02 1.11 39.11 2.52 110.32 10.78 113.67 37.61 4.62 37.05 0 83.36 32.42 97.25 32.43 13.9 41.69-55.58 69.48-37.05 27.78 18.53 101.89 36.36 101.89 69.13 0 32.75-13.89 83.71 0 92.98 13.89 9.26 69.44 74.1 69.46 83.35.02 9.27 19.57 56.38 13.74 74.39-4.83 14.92-29.25 61.29-52.9 82.37 58.3 21.83 121.36 33.85 187.2 33.85 295.01 0 535.01-239.99 535.01-534.99 0-87.37-21.2-169.85-58.49-242.76 3.59 54.4 1.17 103.98 13.08 120.23 52.14 70.99-127.01 119.83-99.8 227.2z"
  />
</svg>
