<svg
id="ram"
  xmlns="http://www.w3.org/2000/svg"
  viewBox="0 0 2385.82 2385.82"
  shape-rendering="geometricPrecision"
  image-rendering="optimizeQuality"
  fill-rule="evenodd"
>
  <path
    d="M198.82 1093.5h1988.19V795.27h198.82V0H.01v795.27h198.82v298.23zm0 1292.32h1988.19v-298.23h198.82v-795.27H.01v795.27h198.82v298.23zm.01-596.46h497.05l-.01-298.23H198.82l.01 298.23zm1491.14 0h497.04l-.01-298.23h-497.04l.01 298.23zm-795.28 0h596.46l-.01-298.23H894.68l.01 298.23zM198.82 499.05h497.05l.01-300.24H198.83l-.01 300.24zm1491.14 0H2187l.01-300.24h-497.04l-.01 300.24zm-795.28 0h596.46l.01-300.24H894.69l-.01 300.24z"

  />
</svg>
