<svg id="telegram" viewBox="0 0 24 20"  xmlns="http://www.w3.org/2000/svg">
<path d="M23.9923 1.74647C23.6626 5.25734 22.2191 13.7837 21.4885 17.7155C21.1767 19.3814 20.5708 19.9367 19.9827 19.9904C18.6996 20.1069 17.7284 19.1396 16.481 18.3156C14.5386 17.0348 13.4337 16.2377 11.5537 14.9839C9.37066 13.5419 10.7874 12.7448 12.0259 11.4461C12.3556 11.1058 18.0046 5.93801 18.1116 5.47229C18.1294 5.40959 18.1383 5.19464 18.0046 5.07821C17.871 4.96178 17.6839 5.00656 17.5502 5.03343C17.3542 5.07523 14.2475 7.13816 8.23015 11.2222C7.35102 11.8312 6.55207 12.1268 5.83331 12.1089C5.04031 12.091 3.52558 11.6611 2.39398 11.2939C1.0129 10.8461 -0.0919582 10.6042 0.00605381 9.834C0.0535748 9.43395 0.603036 9.02495 1.65444 8.60699C8.09353 5.78874 12.3882 3.92882 14.5386 3.02722C20.6777 0.465727 21.9518 0.0179126 22.7805 0C22.9676 0 23.3686 0.0447822 23.6359 0.259733C23.8103 0.413904 23.9215 0.6278 23.9477 0.859804C23.9959 1.15271 24.0108 1.45018 23.9923 1.74647Z" />
</svg>
