
<svg id="user" xmlns="http://www.w3.org/2000/svg" xml:space="preserve" version="1.1" style="shape-rendering:geometricPrecision; text-rendering:geometricPrecision; image-rendering:optimizeQuality; fill-rule:evenodd; clip-rule:evenodd"
viewBox="0 0 1985.84 1985.83">

  <g id="Layer_x0020_1">
    <metadata id="CorelCorpID_0Corel-Layer"/>
    <path class="fil0" d="M1981.59 1379.64c-15.09,-37.73 -35.21,-72.94 -57.85,-105.65 -104.29,-154.16 -259.67,-261.31 -436.65,-301.21 -123.85,132.09 -299.67,214.91 -494.02,214.91 -194.35,0 -370.18,-82.84 -494.03,-214.93 -177.38,39.9 -334.6,147.05 -436.63,301.23 -22.64,32.71 -42.76,70.44 -57.85,105.65 -7.55,15.09 -5.03,32.71 2.51,47.8 20.13,35.21 45.28,70.43 67.92,100.61 35.21,47.79 72.94,90.54 115.7,130.79 35.21,35.22 75.45,67.92 115.7,100.61 198.7,148.41 437.66,226.38 684.16,226.38 246.5,0 485.46,-77.98 684.17,-226.38 40.24,-30.17 80.49,-65.39 115.7,-100.61 40.24,-40.24 80.49,-83 115.7,-130.79 25.15,-32.71 47.8,-65.4 67.92,-100.61 12.57,-15.09 15.08,-32.71 7.54,-47.8zm-988.52 -1379.64c-280.59,0 -509.96,229.37 -509.96,509.96 0,280.59 229.37,509.97 509.96,509.97 280.6,0 509.97,-229.38 509.97,-509.97 0,-280.59 -229.37,-509.96 -509.97,-509.96z"/>
  </g>
</svg>