<svg id="vk" viewBox="0 0 28 17"  xmlns="http://www.w3.org/2000/svg">
<path d="M0 0H4.78689C4.94614 7.79775 8.47775 11.0992 11.2787 11.7741V0H15.7939V6.72157C18.5574 6.42972 21.452 3.36534 22.4356 0H26.9508C26.5761 1.74195 25.8454 3.40182 24.7869 4.86105C23.7283 6.32028 22.3794 7.5515 20.8056 8.47264C22.5574 9.32082 24.103 10.5156 25.3396 11.993C26.5855 13.4614 27.4848 15.1668 28 17H23.0258C22.5761 15.4131 21.6393 13.9812 20.356 12.905C19.0632 11.8197 17.4801 11.1357 15.7939 10.926V17H15.2506C5.68618 17 0.224824 10.6159 0 0Z" />
</svg>
